<?xml version="1.0" encoding="utf-8"?>
<!-- Generator: Adobe Illustrator 21.0.0, SVG Export Plug-In . SVG Version: 6.00 Build 0)  -->
<svg version="1.1" id="Layer_1_copy" xmlns="http://www.w3.org/2000/svg" xmlns:xlink="http://www.w3.org/1999/xlink" x="0px"
	 y="0px" viewBox="0 0 2870 512" style="enable-background:new 0 0 2870 512;" xml:space="preserve">
<style type="text/css">
	.st0{fill:#858585;}
</style>
<g>
	<path class="st0" d="M2431.7,5.3h-148.8c-23.9,0-43.3,18.6-43.3,41.4v400.2h192.1c66.8,0,121.2-51.8,121.2-115.5V120.7
		C2552.9,57.1,2498.5,5.3,2431.7,5.3z M2332.5,175.5l38.7,43.2l0.2-130.7h60.3c23.1,0,44.9,8.6,61.2,24.2
		c16.4,15.5,25.4,36.1,25.4,57.9v161.2c0,21.8-9,42.4-25.4,57.9c-16.4,15.6-38.2,24.2-61.2,24.2h-157.5V88h19.3v131L2332.5,175.5z
		 M2431.7,54.6h-60.2l0-7.4h-78v7.4h-10.6c-2.3,0-4.5-0.9-6.2-2.5c-1.7-1.6-2.5-3.5-2.5-5.5s0.8-3.9,2.5-5.5
		c1.7-1.6,3.8-2.5,6.2-2.5h148.8c23.1,0,44.9,8.6,61.2,24.2c5.2,4.9,9.7,10.4,13.4,16.3C2485.2,63.3,2459.1,54.6,2431.7,54.6z"/>
	<path class="st0" d="M2864.8,111.9c0-58.5-49.9-106.1-111.3-106.1h-147.9c-23.6,0-42.8,18.3-42.8,40.9c0,21.2,17.4,39.1,39.5,40.8
		l0.2,0l151,0.1c20.7,0,40.2,7.7,55,21.7c14.7,13.9,22.7,32.3,22.7,51.8s-8.1,37.9-22.7,51.8c-14.8,14-34.3,21.7-55,21.7h-146.9
		c-9.3,0-16.8,7.3-16.8,16.2s7.5,16.2,16.8,16.2h146.9c20.7,0,40.2,7.7,55,21.7c14.7,13.9,22.7,32.3,22.7,51.8
		c0,11.9-3.1,23.8-9,34.3c-1.2,2.1-2.6,4.2-4,6.2c-2.7,3.9-6,7.7-9.7,11.2c-6.5,6.2-13.9,11.1-22,14.7l0.1-66.8h-78V414h-130.1
		c-9.3,0-16.8,7.3-16.8,16.2s7.5,16.2,16.8,16.2h130.1V512l39-43.5l38.7,43.2l0.1-70c45.3-13.4,78.4-53.7,78.4-101.2v-49.3
		c0-23.5-8.4-46.4-23.6-65c15.3-18.6,23.6-41.5,23.6-65V111.9z M2822.6,78.2c-19.6-14.8-43.9-23.1-69.1-23.1h-147.9
		c-2.5,0-4.8-0.9-6.5-2.6c-1.7-1.7-2.7-3.7-2.7-5.9s0.9-4.2,2.7-5.9c1.8-1.7,4-2.6,6.5-2.6h147.9c20.7,0,40.2,7.7,55,21.7
		C2814.2,65.3,2819,71.5,2822.6,78.2z M2822.7,257.5c-3.2-2.5-6.6-4.7-10.1-6.8c1.4-0.8,2.7-1.6,4-2.5
		C2818.9,251.2,2820.9,254.3,2822.7,257.5z"/>
</g>
<g>
	<path class="st0" d="M415.3,3.3H394c-3.8,0-7.2,2.1-8.9,5.5L215.2,344.4L44.2,8.7c-1.7-3.4-5.1-5.5-8.9-5.5H13.9
		c-5.5,0-10,4.5-10,10v426.4c0,5.5,4.5,10,10,10h12.2c5.5,0,10-4.5,10-10V66.4l169,330.8c1.7,3.3,5.1,5.5,8.9,5.5h1.2
		c3.8,0,7.2-2.1,8.9-5.5L392.6,66.4l0.5,373.3c0,5.5,4.5,10,10,10h12.2c5.5,0,10-4.5,10-10V13.3C425.3,7.7,420.8,3.3,415.3,3.3z"/>
	<path class="st0" d="M617.2,114.3c-42.8,0-82.2,15.4-123.9,48.5c-4.2,3.4-5,9.5-1.8,13.8l7.3,9.8c1.6,2.2,4,3.6,6.7,3.9
		c2.7,0.4,5.4-0.4,7.5-2.1c36.8-28.9,68.9-41.8,104.2-41.8c29.9,0,52.7,7.4,67.8,21.8c14.5,13.9,21.9,34.4,22.2,60.9v28.4H600.1
		c-37.6,0-69.1,8-91.2,23.1c-23.5,16.1-35.9,39.6-35.9,68s11.3,54.2,31.7,72.6c20.3,18.3,49,28.3,80.8,28.3
		c51.7,0,93.5-17.3,122.6-50.4l0.3,40.5c0,5.5,4.5,9.9,10,9.9h12.2c2.7,0,5.2-1.1,7.1-2.9c1.9-1.9,2.9-4.4,2.9-7.1L739.4,229
		C738.8,157.2,693.1,114.3,617.2,114.3z M586.1,417.5c-49.1,0-80.9-27-80.9-68.7c0-22,12.3-58.9,94.9-58.9h107.2l0.5,49.1
		C685.7,392.5,646.9,417.5,586.1,417.5z"/>
	<path class="st0" d="M950.9,114.3c-0.1,0-0.1,0-0.2,0c-34.6,0.6-64.5,9.3-89.1,25.9c-13.2,8.9-24.5,19.8-33.7,32.7v-48.5
		c0-5.5-4.5-10-10-10h-12.2c-5.5,0-10,4.5-10,10v315.4c0,5.5,4.5,10,10,10h12.2c5.5,0,10-4.5,10-10v-171
		c2.9-37.9,15.1-67.8,36.3-88.9c21.3-21.2,50.4-32.4,86.8-33.2c64.5,0,101.5,37.3,101.5,102.2v190.9c0,5.5,4.5,10,10,10h12.2
		c5.5,0,10-4.5,10-10V248.7c0-41.1-12.3-75.1-35.5-98.5C1025.9,126.7,991.9,114.3,950.9,114.3z"/>
	<path class="st0" d="M1404.1,114.3h-12.2c-5.5,0-10,4.5-10,10v154.3c0,42.4-11.1,77.5-32.2,101.4c-20.8,23.6-51.6,36.5-89.1,37.4
		c-63.4,0-99.7-37.3-99.7-102.2V124.3c0-5.5-4.5-10-10-10h-12.2c-5.5,0-10,4.5-10,10v190.9c0,41,12.1,75.1,35,98.5
		c23,23.5,56.5,35.9,97,35.9c0.1,0,0.1,0,0.2,0c53.2-1,94.9-21.8,121-59.5v49.5c0,5.5,4.5,10,10,10h12.2c5.5,0,10-4.5,10-10V124.3
		C1414.1,118.8,1409.6,114.3,1404.1,114.3z"/>
	<path class="st0" d="M1595,114.3c-42.8,0-82.2,15.4-123.9,48.5c-4.2,3.4-5,9.5-1.8,13.8l7.3,9.8c1.6,2.2,4,3.6,6.7,3.9
		c2.7,0.4,5.4-0.4,7.5-2.1c36.8-28.9,68.9-41.8,104.2-41.8c29.9,0,52.7,7.4,67.8,21.8c14.5,13.9,21.9,34.4,22.2,60.9v28.4h-107
		c-37.6,0-69.1,8-91.2,23.1c-23.5,16.1-35.9,39.6-35.9,68s11.3,54.2,31.7,72.6c20.3,18.3,49,28.3,80.8,28.3
		c51.7,0,93.5-17.3,122.6-50.4l0.3,40.5c0,5.5,4.5,9.9,10,9.9h12.2c2.7,0,5.2-1.1,7.1-2.9c1.9-1.9,2.9-4.4,2.9-7.1l-1.2-210.5
		C1716.6,157.2,1670.9,114.3,1595,114.3z M1563.9,417.5c-49.1,0-80.9-27-80.9-68.7c0-22,12.3-58.9,94.9-58.9h107.2l0.5,49.1
		C1663.5,392.5,1624.8,417.5,1563.9,417.5z"/>
	<path class="st0" d="M1798.8,1h-12.2c-5.5,0-10,4.5-10,10v428.6c0,5.5,4.5,10,10,10h12.2c5.5,0,10-4.5,10-10V11
		C1808.8,5.5,1804.3,1,1798.8,1z"/>
	<path class="st0" d="M2041.4,290.3c-20.2-13.6-46.1-21.4-71.2-28.9c-51.3-15.3-82.4-27.2-82.4-62.7c0-16.7,7.1-29.7,21.1-38.7
		c13.8-8.8,33.6-13.5,57.4-13.5c27.5,0,52.4,6.6,72.1,19.2c2.3,1.5,5.1,1.9,7.7,1.3c2.6-0.6,4.9-2.3,6.3-4.7l6.1-10.4
		c1.4-2.3,1.7-5,1.1-7.6c-0.7-2.6-2.4-4.8-4.7-6.1c-27.8-16.1-57-23.9-89.2-23.9c-30.4,0-56.7,7-76,20.1c-22.3,15.2-34,37.8-34,65.5
		c0,27.8,11.7,49.2,35.6,65.3c19.9,13.4,45.6,21.3,70.4,29c53,16.4,85,29.1,83.6,66.3c-0.7,18.2-9,32.5-24.5,42.4
		c-14.7,9.4-35.8,14.5-59.4,14.5c-38.6,0-72.5-13.1-97.9-38c-2-1.9-4.6-3-7.4-2.8c-2.8,0.1-5.3,1.4-7.1,3.4l-7.9,9.2
		c-3.4,4-3.2,9.9,0.5,13.6c29.8,29.8,73.5,46.8,119.9,46.8c30.8,0,59-7.6,79.3-21.3c24.1-16.4,36.9-40.7,36.9-70.4
		C2077.4,328.8,2065.6,306.7,2041.4,290.3z"/>
</g>
</svg>
