<?xml version="1.0" encoding="utf-8"?>
<!-- Generator: Adobe Illustrator 21.0.0, SVG Export Plug-In . SVG Version: 6.00 Build 0)  -->
<svg version="1.1" id="Layer_1_copy" xmlns="http://www.w3.org/2000/svg" xmlns:xlink="http://www.w3.org/1999/xlink" x="0px"
	 y="0px" viewBox="0 0 512 512" style="enable-background:new 0 0 512 512;" xml:space="preserve">
<style type="text/css">
	.st0{fill:#858585;}
</style>
<g>
	<path class="st0" d="M157.7,73.3H36.3C16.8,73.3,1,88.5,1,107.1v326.5h156.7c54.6,0,98.9-42.3,98.9-94.2V167.5
		C256.6,115.5,212.3,73.3,157.7,73.3z M31.2,102.5c1.4-1.3,3.2-2,5.1-2h121.4c18.8,0,36.5,7,50,19.7c4.2,4,7.9,8.5,10.9,13.3
		c-17.3-12.8-38.5-20-60.9-20h-49.1l0-6H45v6h-8.7c-1.9,0-3.7-0.7-5.1-2c-1.3-1.2-2-2.9-2-4.5S29.9,103.7,31.2,102.5z M228.3,339.1
		c0,17.8-7.3,34.5-20.7,47.2C194.2,399,176.4,406,157.7,406H29.2V140.8H45v106.9l31.8-35.5l31.6,35.2l0.2-106.6h49.1
		c18.8,0,36.5,7,49.9,19.7c13.4,12.7,20.7,29.4,20.7,47.2V339.1z"/>
	<path class="st0" d="M420.2,73.7H299.6c-19.3,0-34.9,14.9-34.9,33.4c0,17.3,14.2,31.9,32.2,33.2h0.2l123.1,0.1
		c16.9,0,32.8,6.3,44.8,17.7c12,11.3,18.5,26.3,18.5,42.3s-6.6,30.9-18.5,42.3c-12,11.4-27.9,17.7-44.8,17.7H300.3
		c-7.6,0-13.7,6-13.7,13.2s6.1,13.2,13.7,13.2h119.8c16.9,0,32.8,6.3,44.8,17.7c12,11.3,18.5,26.3,18.5,42.3
		c0,9.8-2.5,19.5-7.4,28.1c-1,1.7-2,3.4-3.2,5c-2.3,3.3-5,6.4-8,9.2c-5.2,5-11.2,9-17.7,11.9l0.1-54.5h-63.6v60.3H277.3
		c-7.6,0-13.7,6-13.7,13.2s6.1,13.2,13.7,13.2h106.3v53.5l31.8-35.5l31.6,35.2l0.1-57.1c36.9-11,63.7-43.8,63.7-82.5v-40.2
		c0-19.2-6.9-37.9-19.3-53c12.5-15.2,19.4-33.9,19.4-53.1v-40.4h0.1v0C511,112.5,470.3,73.7,420.2,73.7z M420.2,113.9H299.6
		c-2,0-3.9-0.7-5.3-2.1c-1.4-1.3-2.1-3-2.1-4.8s0.7-3.4,2.1-4.8c1.5-1.4,3.3-2.1,5.3-2.1h120.6c16.9,0,32.8,6.3,44.8,17.7
		c4.6,4.5,8.6,9.5,11.5,14.9C460.6,120.6,440.8,113.9,420.2,113.9z M468.3,273.5c1.1-0.7,2.2-1.3,3.3-2c1.8,2.4,3.4,4.9,4.9,7.5
		C473.9,277,471.2,275.2,468.3,273.5z"/>
</g>
</svg>
